# xmcd
#
# Track frame offsets: 
#        150
#        18812
#        34023
#        55947
#        73718
#        92096
#        111238
#        128381
#        149299
#        166172
#        187717
#        215015
#        234100
#        257815
#
# Disc length: 4486 seconds
#
# Revision: 0
# Processed by: cddbd v1.5.2PL0 Copyright (c) Steve Scherf et al.
# Submitted via: ExactAudioCopyFreeDBPlugin 1.0
#
DISCID=b211840e
DTITLE=P.L.A.N. - Шлях Да Каханай
DYEAR=2007
DGENRE=Blues
TTITLE0=Джынсавая Песьня
TTITLE1=Кола Жыцьця
TTITLE2=Шлях Да Каханай
TTITLE3=Купальскі Rock-And-Roll
TTITLE4=Легенда
TTITLE5=Rockавае Танга
TTITLE6=Шынкарачка (New)
TTITLE7=Новыя Словы
TTITLE8=Бязьвінныя Забойцы
TTITLE9=Расстаньне
TTITLE10=Вялікае Калі Ласка
TTITLE11=Дзівосны Сон
TTITLE12=Рай На Зямлі
TTITLE13=Медыя Бонус
EXTD=
EXTT0=
EXTT1=
EXTT2=
EXTT3=
EXTT4=
EXTT5=
EXTT6=
EXTT7=
EXTT8=
EXTT9=
EXTT10=
EXTT11=
EXTT12=
EXTT13=
PLAYORDER=
